<svg width="72" height="85" viewBox="0 0 72 85" fill="none" xmlns="http://www.w3.org/2000/svg">
<g clip-path="url(#clip0_3_36)">
<path d="M33.6227 8.28601C33.6227 7.95403 33.4579 7.64369 33.183 7.45769L26.9213 3.22249C26.5968 3.00305 26.1742 2.99323 25.8399 3.19735L17.8682 8.06517C17.8244 8.09188 17.7787 8.11518 17.7314 8.13488L12.0527 10.4992C11.7479 10.6261 11.5254 10.8952 11.4581 11.2184L9.99744 18.2262C9.96304 18.3913 9.88746 18.5449 9.77774 18.673L-0.299163 30.4293C-0.545981 30.7173 -0.608663 31.1201 -0.461019 31.4694L2.98876 39.6319C3.1452 40.0021 3.50802 40.2426 3.90987 40.2426H9.945L11.5657 40.245L15.5051 40.2438L17.8025 40.2426H19.1188C19.6711 40.2426 20.1188 39.7949 20.1188 39.2426V35.9128C20.1188 35.5879 20.2766 35.2832 20.542 35.0959L33.1994 26.1597C33.4649 25.9723 33.6227 25.6677 33.6227 25.3428V8.28601Z" fill="white"/>
<path d="M67.5299 39.321C67.3586 39.7262 67.4723 40.1958 67.8099 40.4778L69.4629 41.8587C69.6903 42.0487 69.8217 42.3298 69.8217 42.6261V50.963C69.8217 51.2595 69.6902 51.5407 69.4626 51.7307L64.6587 55.7409C64.3173 56.0259 63.8287 56.0511 63.4597 55.8029L50.8115 47.2942C50.5353 47.1084 50.3697 46.7973 50.3697 46.4645V35.6733C50.3697 35.3484 50.2119 35.0437 49.9465 34.8563L37.289 25.9202C37.0236 25.7328 36.8658 25.4282 36.8658 25.1033V8.04648C36.8658 7.7145 37.0305 7.40415 37.3055 7.21816L43.5672 2.98296C43.8916 2.76352 44.3143 2.75369 44.6486 2.95782L52.6203 7.82563C52.664 7.85234 52.7098 7.87565 52.7571 7.89535L58.4358 10.2597C58.7406 10.3866 58.9631 10.6557 59.0304 10.9788L60.491 17.9867C60.5254 18.1517 60.601 18.3054 60.7107 18.4334L70.7877 30.1898C71.0345 30.4778 71.0971 30.8806 70.9495 31.2299L67.5299 39.321Z" fill="white"/>
<path fill-rule="evenodd" clip-rule="evenodd" d="M32.5866 82.3835C32.925 82.214 33.1388 81.8679 33.1388 81.4894V60.6405C33.1388 60.3024 32.968 59.9872 32.6847 59.8026L20.555 51.8996C20.2724 51.7155 20.1017 51.4013 20.1009 51.0641L20.0868 45.0452C20.0856 44.5029 19.6524 44.0605 19.1103 44.0478L18.0555 44.023L17.7859 44.0334H3.46423C3.04028 44.0334 2.66239 44.3007 2.52127 44.7005L0.982554 49.0592L-0.443982 52.6202C-0.607216 53.0277 -0.485641 53.494 -0.14423 53.7699L7.96583 60.3236C8.1274 60.4542 8.2443 60.6318 8.30029 60.8319L9.89137 66.5165C9.91593 66.6042 9.92838 66.6949 9.92838 66.786V66.8918C9.92838 66.9809 9.94031 67.0697 9.96385 67.1557L11.443 72.5604C11.5111 72.8093 11.6727 73.0222 11.8941 73.1546L13.3314 74.0144C13.4549 74.0882 13.5609 74.1879 13.6424 74.3065L15.3621 76.8111C15.4453 76.9324 15.5543 77.0338 15.6812 77.1081L17.5937 78.2278C17.7203 78.3019 17.829 78.4029 17.9121 78.5237L23.1577 86.1413C23.4406 86.5522 23.9831 86.6917 24.4291 86.4683L32.5866 82.3835Z" fill="white"/>
<path fill-rule="evenodd" clip-rule="evenodd" d="M32.6847 59.8026C32.968 59.9872 33.1388 60.3024 33.1388 60.6405V81.4894C33.1388 81.8679 32.925 82.214 32.5866 82.3835L24.4291 86.4683C23.9831 86.6917 23.4406 86.5522 23.1577 86.1413L17.9121 78.5237C17.829 78.4029 17.7203 78.3019 17.5937 78.2278L15.6812 77.1081C15.5543 77.0338 15.4453 76.9324 15.3621 76.8111L13.6424 74.3065C13.5609 74.1879 13.4549 74.0882 13.3314 74.0144L11.8941 73.1546C11.6727 73.0222 11.5111 72.8093 11.443 72.5604L9.96385 67.1557C9.94031 67.0697 9.92838 66.9809 9.92838 66.8918V66.786C9.92838 66.6949 9.91593 66.6042 9.89137 66.5165L8.30029 60.8319C8.2443 60.6318 8.1274 60.4542 7.96583 60.3236L-0.14423 53.7699C-0.485641 53.494 -0.607216 53.0277 -0.443982 52.6202L0.982554 49.0592L2.52127 44.7005C2.66239 44.3007 3.04028 44.0334 3.46423 44.0334H17.7859L18.0555 44.023L19.1103 44.0478C19.6524 44.0605 20.0856 44.5029 20.0868 45.0452L20.1009 51.0641C20.1017 51.4013 20.2724 51.7155 20.555 51.8996L32.6847 59.8026Z" fill="white"/>
<path d="M49.5357 55.2436L59.3272 61.6344C59.6927 61.873 59.8613 62.3211 59.7436 62.7414L59.1748 64.7727L57.6564 70.6744C57.5908 70.9292 57.4274 71.1479 57.2017 71.2831L55.7715 72.1395C55.6482 72.2134 55.5422 72.3129 55.4609 72.4314L53.7411 74.9362C53.6578 75.0575 53.5489 75.1589 53.4219 75.2332L51.5094 76.353C51.3829 76.427 51.2742 76.528 51.191 76.6487L47.7612 81.6292L45.9455 84.2662C45.6626 84.6772 45.12 84.8167 44.6739 84.5931L44.3352 84.4234L38.9573 81.7309L36.8 80.2705C36.5253 80.0844 36.3606 79.7742 36.3606 79.4424V58.7819C36.3606 58.3714 36.6114 58.0026 36.9932 57.8518L46.8142 53.9715C47.1158 53.8523 47.4565 53.8868 47.7281 54.064L49.5357 55.2436Z" fill="white"/>
<path d="M64.3905 56.5224L63.9185 56.2019L50.3696 46.9969" fill="white"/>
</g>
<defs>
<clipPath id="clip0_3_36">
<rect width="71.1904" height="84.983" fill="white"/>
</clipPath>
</defs>
</svg>
